P3
# resolution
2 2
# avec 255 comme val max
255
# debut de l image
255
0
0
255
0
0
0
255
0
0
0
255
